<?xml version="1.0" encoding="UTF-8" standalone="no"?>
<!-- Created with Inkscape (http://www.inkscape.org/) -->

<svg
   width="210mm"
   height="297mm"
   viewBox="0 0 210 297"
   version="1.1"
   id="svg5"
   xmlns:xlink="http://www.w3.org/1999/xlink"
   xmlns="http://www.w3.org/2000/svg"
   xmlns:svg="http://www.w3.org/2000/svg">
  <defs
     id="defs2" />
  <g
     id="layer1">
    <path
       style="fill:#000000;fill-opacity:1;fill-rule:nonzero;stroke:none;stroke-width:0.264583"
       id="path524"
       d="m 139.53006,292.24859 c 0.0221,-0.34417 0.0322,-0.68932 0.0664,-1.03251 0.12342,-1.23783 0.34644,-2.71865 0.53242,-3.92671 0.39923,-2.59324 0.84531,-5.17956 1.26535,-7.76946 1.10955,-6.98077 1.72426,-14.02567 2.37121,-21.06038 0.88779,-9.23656 1.39582,-18.50304 1.79421,-27.77172 0.43816,-10.33523 0.34973,-20.68105 0.18986,-31.02105 -0.14231,-6.93325 -0.36095,-13.86715 -0.78394,-20.78962 -0.27131,-4.4401 -0.39018,-5.55812 -0.76066,-9.97193 -0.56922,-6.19903 -1.31011,-12.38991 -2.48345,-18.50661 -0.71771,-3.74144 -0.97316,-4.59022 -1.86957,-8.25734 -1.28255,-4.85383 -2.86368,-9.64125 -5.01771,-14.18354 -1.23215,-2.59827 -1.7377,-3.36387 -3.16028,-5.83308 -2.109,-3.44009 -4.54632,-6.67861 -7.28615,-9.64193 -1.65409,-1.78903 -2.20349,-2.2452 -3.96915,-3.89967 -2.61977,-2.35285 -5.53877,-4.34551 -8.68806,-5.92028 -1.97881,-0.98949 -2.74924,-1.24534 -4.80161,-2.06159 -3.39384,-1.230458 -6.93886,-2.002266 -10.543022,-2.240769 -2.405642,-0.159192 -3.488434,-0.07273 -5.907098,-0.0075 -5.294932,0.345015 -10.573393,1.191282 -15.710138,2.529509 -1.059342,0.27599 -2.105644,0.5998 -3.158466,0.8997 -5.641324,1.74472 -11.028953,4.25253 -15.9516,7.52155 -0.948393,0.62981 -1.836766,1.34564 -2.755151,2.01845 -2.315781,2.01108 -3.097535,2.55587 -5.146254,4.88643 -0.771478,0.8776 -1.45542,1.82845 -2.18313,2.74268 0,0 0.07361,-0.0313 0.07361,-0.0313 v 0 c 0.800653,-0.94431 1.566839,-1.91895 2.401961,-2.83291 2.379203,-2.6038 2.698986,-2.72084 5.38802,-4.97612 1.905866,-1.35112 3.225269,-2.36928 5.199013,-3.50252 3.866985,-2.22026 7.994062,-3.95837 12.252372,-5.27126 1.041112,-0.29266 2.076183,-0.60772 3.123332,-0.87797 5.082469,-1.31166 10.290776,-2.115209 15.529869,-2.422033 0.991561,-0.02471 1.98283,-0.07994 2.974682,-0.07416 4.526412,0.02638 9.01117,0.760175 13.23209,2.426943 0.78427,0.33449 1.58051,0.64217 2.35279,1.00346 3.91101,1.82968 7.47868,4.31799 10.68854,7.19403 0.66057,0.62724 1.33699,1.23819 1.98171,1.88172 3.50917,3.50266 6.59597,7.42018 9.19928,11.63847 1.44925,2.50751 1.89799,3.17214 3.15766,5.81066 2.16073,4.52592 3.76372,9.2913 5.02543,14.13981 0.85927,3.51975 1.17893,4.65443 1.87892,8.23827 1.19129,6.09929 1.9605,12.27239 2.54168,18.45684 0.37856,4.40463 0.50033,5.52536 0.77805,9.95664 0.43336,6.91457 0.65972,13.8406 0.8141,20.76632 0.16175,10.32798 0.26239,20.66171 -0.1428,30.98598 -0.36755,9.25222 -0.90239,18.49522 -1.70948,27.72055 -0.58903,7.00076 -1.21856,14.00142 -2.19219,20.96121 -0.32581,2.31008 -0.42143,3.05025 -0.77494,5.32024 -0.33188,2.13106 -0.72776,4.25432 -1.03118,6.38969 -0.0507,0.35703 -0.0823,0.71649 -0.12347,1.07474 0,0 1.3369,-0.67993 1.3369,-0.67993 z" />
    <path
       id="path524-2"
       style="fill:#000000;fill-opacity:1;fill-rule:nonzero;stroke:none;stroke-width:1.03326"
       d="M 363.08008 368.20117 C 359.58593 368.23909 356.08623 368.38436 351.25 368.50977 C 330.0751 369.82549 308.9661 373.05283 288.42383 378.15625 C 284.18744 379.20877 280.00329 380.44417 275.79297 381.58789 C 253.23283 388.24152 231.68612 397.80479 212 410.27148 C 208.2073 412.6733 204.65513 415.40294 200.98242 417.96875 C 191.72141 425.63821 188.59535 427.71573 180.40234 436.60352 C 177.31713 439.95036 174.58204 443.57604 171.67188 447.0625 L 171.9668 446.94336 C 175.16868 443.34219 178.23254 439.62611 181.57227 436.14062 C 191.0869 426.21083 192.36546 425.76476 203.11914 417.16406 C 210.74085 412.01147 216.01699 408.12834 223.91016 403.80664 C 239.37459 395.33948 255.87885 388.70994 272.9082 383.70312 C 277.0717 382.58704 281.21083 381.38607 285.39844 380.35547 C 305.72369 375.35336 326.55234 372.28926 347.50391 371.11914 C 351.46924 371.02495 355.43386 370.81421 359.40039 370.83594 C 364.42139 370.86386 369.42595 371.12454 374.40234 371.58594 C 376.08718 372.77629 380.16801 374.50556 384.4375 375.39453 C 392.85328 377.14684 417.3117 388.76695 425.6543 392.56445 C 427.82656 393.55325 426.01146 391.31553 424.33789 389.5 C 425.80489 390.65803 427.764 391.76597 429.86523 392.75586 C 430.65631 393.36132 431.41487 393.96769 432.29688 394.56445 C 459.28843 412.82695 474.22932 429.4259 491.63086 455.36523 C 500.29477 468.27995 514.41091 492.05584 518.24219 505.17773 C 519.39638 509.13077 520.25692 512.00494 521.3418 515.70312 C 520.91184 515.55865 520.42624 515.38616 520.38867 515.42578 C 520.17589 515.65016 523.51066 527.90298 526.50391 539.62891 C 535.25734 573.92015 539.98289 604.8479 544.01953 656.19531 C 547.24014 697.16256 547.06192 778.51946 548.72852 824.48633 L 550.30664 867.97266 L 550.41406 867.99805 L 549.13281 877.96094 C 546.29593 900.01448 544.74444 940.52183 541.79492 973.33203 C 537.4931 1021.185 535.70916 1036.1831 530.33008 1069.6758 C 527.43629 1087.694 526.74225 1094.8421 526.27734 1099.7695 C 526.00392 1102.6673 525.76846 1105.1387 525.32031 1105.4688 C 524.99304 1105.7099 526.56153 1105.6107 526.64453 1105.6777 C 526.72756 1105.7452 529.26135 1106.1284 532.27539 1106.5293 C 535.28943 1106.9301 538.71022 1107.2341 539.87695 1107.2051 L 543.54102 1100.5 C 543.21043 1102.4803 542.85235 1104.4568 542.55664 1106.4414 C 542.35368 1107.8029 542.2271 1109.1748 542.0625 1110.541 L 547.41016 1107.9473 L 547.41016 1107.9453 C 547.49822 1106.6328 547.53934 1105.3166 547.67578 1104.0078 C 548.16935 1099.2872 549.06091 1093.6403 549.80469 1089.0332 C 551.4012 1079.1437 553.18546 1069.2811 554.86523 1059.4043 C 559.30244 1032.7825 561.76046 1005.9154 564.34766 979.08789 C 567.89807 943.86349 569.93025 908.52463 571.52344 873.17773 C 573.27566 833.76342 572.92059 794.30941 572.28125 754.87695 C 571.71217 728.4364 570.83805 701.99318 569.14648 675.59375 C 568.0615 658.66105 567.58708 654.39688 566.10547 637.56445 C 563.82913 613.92392 560.86611 590.31481 556.17383 566.98828 C 553.30362 552.71992 552.28207 549.4829 548.69727 535.49805 C 543.56818 516.98755 537.24501 498.73061 528.63086 481.4082 C 523.70338 471.49945 521.68121 468.57865 515.99219 459.16211 C 507.55813 446.04303 497.81232 433.69348 486.85547 422.39258 C 480.24065 415.56993 478.04345 413.83095 470.98242 407.52148 C 460.50572 398.54873 448.83062 390.94884 436.23633 384.94336 C 428.32294 381.1698 425.24274 380.19487 417.03516 377.08203 C 403.46287 372.38957 389.28643 369.4447 374.87305 368.53516 C 370.06287 368.23161 366.57423 368.16325 363.08008 368.20117 z M 527.8418 515.75586 C 528.81694 516.76919 530.3679 517.91719 532.02344 518.96875 C 531.00931 518.82061 529.85908 518.55795 528.65039 518.20312 C 528.38973 517.42816 528.05444 516.32226 527.8418 515.75586 z M 565.70117 867.0293 C 565.68843 867.40952 565.6752 867.7897 565.66211 868.16992 L 565.47852 867.99414 L 565.57422 867.97266 L 565.70117 867.0293 z "
       transform="scale(0.26458333)" />
    <path
       style="fill:#000000;fill-opacity:1;fill-rule:nonzero;stroke:none;stroke-width:0.264583"
       id="path666"
       d="m 130.66808,122.0285 c -0.54933,-0.86508 -1.15863,-1.68619 -1.85394,-2.43978 -1.53623,-1.23347 -3.42085,-1.89371 -5.26121,-2.52522 -2.25495,-0.78399 -4.56784,-1.42604 -6.94734,-1.68519 -0.56257,-0.0613 -1.12846,-0.0868 -1.69269,-0.13027 -3.28338,-0.11017 -6.58367,0.15901 -9.78779,0.9014 -0.72353,0.16764 -1.43623,0.37894 -2.15435,0.56841 -2.90227,0.85586 -5.720286,1.99512 -8.394076,3.41319 -1.723649,0.91415 -2.816804,1.64837 -4.544057,2.7251 -2.432193,1.69775 -4.700693,3.64544 -6.741512,5.79959 -1.276093,1.34696 -2.00743,2.27688 -3.199778,3.71252 -0.523007,0.66478 -1.059278,1.31933 -1.569021,1.99434 -0.860351,1.13928 -2.436498,3.36584 -3.226896,4.53936 -1.067924,1.58555 -2.297348,3.50388 -3.229313,5.16563 -0.541264,0.9651 -1.028997,1.95926 -1.543497,2.93889 -1.775765,3.63029 -3.131826,7.44081 -4.529127,11.22579 0,0 0.07252,-0.0338 0.07252,-0.0338 v 0 c 0.510784,-1.38338 0.983388,-2.78146 1.532356,-4.15014 1.459719,-3.63934 1.709155,-3.92832 3.452561,-7.27859 1.366769,-2.41115 1.891699,-3.41184 3.354173,-5.71199 1.99177,-3.13261 4.182393,-6.14132 6.50372,-9.03656 0.550231,-0.65033 1.08689,-1.31239 1.650696,-1.95098 2.510422,-2.84342 5.310756,-5.44183 8.441484,-7.59128 0.300183,-0.21268 0.587099,-0.44545 0.900546,-0.63805 3.186081,-1.95774 6.670844,-3.40864 10.242761,-4.48947 0.711,-0.18676 1.41679,-0.39459 2.13299,-0.56029 3.14469,-0.72753 6.38953,-1.02089 9.61137,-0.81225 0.54766,0.0519 1.09701,0.0882 1.64297,0.15571 2.34898,0.29039 4.63456,0.92356 6.86158,1.71161 1.79547,0.68098 3.63792,1.35053 5.1931,2.50574 0.18009,0.129 0.36828,0.24739 0.54027,0.38701 0.60807,0.49366 1.1125,1.23385 1.61387,1.83647 0,0 0.92763,-0.54693 0.92763,-0.54693 z" />
    <path
       style="fill:#000000;fill-opacity:1;fill-rule:nonzero;stroke:none;stroke-width:0.264583"
       id="path670"
       d="m 149.2622,167.41102 c 0.72531,-1.37473 1.26748,-2.83489 1.68611,-4.32889 0.56549,-2.26201 0.54561,-4.59566 0.42185,-6.90612 -0.15936,-2.33919 -0.54036,-4.67293 -1.26186,-6.90805 -0.14887,-0.46116 -0.32558,-0.91286 -0.48837,-1.36929 -0.72208,-1.81312 -1.61356,-3.56231 -2.70485,-5.18234 -0.69072,-1.02538 -0.94941,-1.30092 -1.72418,-2.25513 -1.12032,-1.32987 -2.41839,-2.489 -3.89581,-3.40763 -0.87224,-0.54234 -1.11225,-0.63119 -2.02106,-1.07406 -1.27217,-0.5413 -2.62723,-0.90997 -4.02125,-0.8627 -0.92166,0.0312 -1.23903,0.14739 -2.14193,0.34926 -1.93813,0.56422 -3.67893,1.61059 -5.32721,2.7561 -0.76982,0.535 -1.52171,1.26317 -2.21032,1.89061 -2.49007,2.39425 -4.55435,5.17003 -6.49305,8.01542 -1.90138,2.92532 -3.54379,6.0207 -4.92089,9.22648 -0.31621,0.73612 -0.60442,1.48395 -0.90664,2.22592 -1.34812,3.55704 -2.468,7.2145 -3.16467,10.95872 -0.52671,2.83076 -0.61746,4.2341 -0.92957,7.14187 -0.14663,1.26323 -0.29327,2.52646 -0.4399,3.78969 0,0 0.0717,-0.0355 0.0717,-0.0355 v 0 c 0.14667,-1.26316 0.29334,-2.52632 0.44001,-3.78948 0.23468,-1.3004 0.44436,-2.60557 0.70404,-3.90121 0.9924,-4.95129 2.32015,-9.85027 4.16479,-14.55437 0.31216,-0.74529 0.61249,-1.49565 0.93649,-2.23588 1.40109,-3.20103 3.03669,-6.30357 4.95704,-9.22441 1.92984,-2.83986 3.98699,-5.61279 6.4847,-7.98629 2.51817,-2.24983 -0.25461,0.18483 2.25661,-1.89431 0.0891,-0.0738 0.14531,-0.18545 0.24235,-0.24843 1.01331,-0.65772 2.13235,-1.13628 3.28435,-1.48821 0.35111,-0.0785 0.69818,-0.17786 1.05332,-0.23537 1.72393,-0.27918 3.43382,0.0392 5.02802,0.71676 0.33069,0.16078 0.66918,0.30642 0.99206,0.48236 1.84406,1.00488 3.41798,2.4488 4.79061,4.02171 0.28686,0.36616 0.58521,0.7236 0.86057,1.09848 1.4315,1.94888 2.60941,4.08307 3.49838,6.33088 0.42596,1.19232 0.56998,1.51488 0.89261,2.73856 0.47427,1.79878 0.72796,3.64721 0.84632,5.5016 0.0996,2.28648 0.15472,4.60074 -0.38381,6.84338 -0.37689,1.45601 -0.83751,2.88538 -1.52843,4.22718 0,0 0.95188,-0.42731 0.95188,-0.42731 z" />
    <path
       style="fill:#000000;fill-opacity:1;fill-rule:nonzero;stroke:none;stroke-width:0.264583"
       id="path672"
       d="m 57.898828,107.8776 c -0.11272,0.11239 -0.234106,0.21671 -0.338158,0.33717 -1.202034,1.39154 -2.139008,3.14473 -2.998288,4.75649 -1.822508,3.63692 -3.083758,7.5164 -4.335441,11.37641 -1.060069,3.47506 -2.145649,6.94335 -3.069492,10.45793 -0.615521,2.34163 -0.823304,3.27852 -1.383575,5.6364 -1.097518,4.79865 -2.030505,9.63732 -2.671416,14.51933 -0.130948,0.99747 -0.238355,1.99789 -0.357534,2.99684 -0.447387,4.1261 -0.685655,8.27154 -0.802336,12.41929 -0.0309,1.09859 -0.07421,2.19737 -0.06788,3.29638 0.0063,1.10167 0.07059,2.20225 0.105884,3.30337 0.05356,1.13761 0.107111,2.27522 0.160668,3.41283 0,0 0.07124,-0.0364 0.07124,-0.0364 v 0 c 0.03073,-1.18041 0.06146,-2.36082 0.09218,-3.54123 0.298998,-6.39691 0.353341,-12.81304 1.10177,-19.1814 0.120806,-0.99911 0.229971,-1.99969 0.362421,-2.99731 0.646753,-4.8713 1.570926,-9.70301 2.641335,-14.49762 1.257565,-5.39674 2.651279,-10.7665 4.354989,-16.04149 1.294151,-3.89106 2.618851,-7.79709 4.514527,-11.44496 1.000914,-1.81059 2.027367,-3.66603 3.512569,-5.13238 0,0 -0.893464,0.36035 -0.893463,0.36035 z" />
    <path
       style="fill:#000000;fill-opacity:1;fill-rule:nonzero;stroke:none;stroke-width:0.264583"
       id="path680"
       d="m 149.36474,225.76362 c 0.9687,0.24681 1.95727,0.33137 2.95309,0.28806 1.47084,-0.13619 2.84009,-0.68647 4.15401,-1.32909 1.75975,-0.90239 3.39997,-1.89475 4.75262,-3.33794 0.6952,-0.74176 0.8699,-1.0164 1.49581,-1.83815 1.44856,-2.09463 2.61973,-4.41659 3.34327,-6.86523 0.17006,-0.57554 0.28829,-1.16515 0.43244,-1.74773 0.47319,-2.25999 0.7391,-4.54663 0.83983,-6.85247 0.042,-0.96039 0.0411,-1.92217 0.0616,-2.88326 0,0 -0.0716,0.0356 -0.0716,0.0356 v 0 c -0.60005,3.46135 -1.13083,6.95533 -2.14834,10.32495 -0.49006,1.43725 -0.68266,2.08689 -1.26057,3.46501 -0.78636,1.87518 -1.77234,3.66245 -2.9912,5.29231 -0.93546,1.16845 -1.88746,2.28521 -3.09912,3.1802 -0.24729,0.18265 -1.06318,0.58846 -0.76439,0.51609 0.3805,-0.0922 0.68144,-0.38568 1.02216,-0.57853 -1.28443,0.64816 -2.6241,1.20459 -4.06686,1.36878 -0.96973,0.0668 -1.93358,-0.002 -2.87488,-0.26086 0,0 -1.77783,1.22225 -1.77783,1.22225 z" />
    <path
       style="fill:#000000;fill-opacity:1;fill-rule:nonzero;stroke:none;stroke-width:0.264583"
       id="path682"
       d="m 165.87947,211.39575 c -1.43544,-0.32056 -2.21715,-1.68975 -3.03882,-2.78032 -0.33817,-0.44885 -0.68271,-0.89287 -1.02407,-1.3393 0,0 -0.11519,0.0653 -0.11519,0.0653 v 0 c 0.1433,0.56189 0.23495,1.13954 0.4299,1.68565 0.47385,1.32734 1.40157,2.58348 2.76835,3.05419 0,0 0.97983,-0.68557 0.97983,-0.68557 z" />
    <path
       style="fill:#000000;fill-opacity:1;fill-rule:nonzero;stroke:none;stroke-width:0.264583"
       id="path684"
       d="m 111.34657,165.49417 c 0.0966,0.34804 0.19907,0.69451 0.28979,1.04413 0.1616,0.62279 0.3383,1.24247 0.46712,1.87285 0.44777,2.19099 0.64448,3.87898 0.9009,6.12961 0.39804,3.49369 0.40051,3.90158 0.69009,7.48292 0.29272,4.06486 0.40347,8.13924 0.41805,12.21371 0.005,1.32967 -0.0117,2.65932 -0.0176,3.98899 0,0 0.0713,-0.0363 0.0713,-0.0363 v 0 c 0.006,-1.3297 0.0223,-2.6594 0.0175,-3.9891 -0.0147,-4.07464 -0.12551,-8.14918 -0.4183,-12.2142 -0.1047,-1.29449 -0.1948,-2.59023 -0.31409,-3.88345 -0.32824,-3.55861 -0.38712,-3.47775 -0.77245,-6.94231 -0.10731,-0.96487 -0.19846,-1.93147 -0.29769,-2.8972 -0.06,-0.67604 -0.10707,-1.35334 -0.17996,-2.02811 -0.0404,-0.37401 -0.10654,-0.74479 -0.15981,-1.11718 0,0 -0.69489,0.37563 -0.69489,0.37563 z" />
    <path
       style="fill:#000000;fill-opacity:1;fill-rule:nonzero;stroke:none;stroke-width:0.264583"
       id="path686"
       d="m 74.005593,140.23132 c 0.107656,0.75668 0.304598,1.49547 0.480774,2.23791 0.5203,2.20724 -0.261731,-1.13876 0.285522,1.30776 0.461087,2.06131 -0.103589,-0.62718 0.374534,1.6154 0.215598,1.01125 0.195919,0.95648 0.382664,2.01367 0.06492,0.39305 0.134649,0.78533 0.19476,1.17914 0.124354,0.81473 0.290243,2.02097 0.351274,2.82771 0.0955,1.26229 0.08827,2.34694 0.09924,3.61842 0.006,0.69538 0.0097,1.39077 0.01455,2.08615 0.02941,2.46329 0.0428,4.92709 0.09463,7.39007 0.02006,0.95267 0.03287,1.90573 0.07591,2.85764 0.256569,5.67485 0.189259,0.33271 0.19046,6.19629 0,0 0.07128,-0.0363 0.07128,-0.0363 v 0 c -0.0013,-5.98326 -0.06051,-0.36383 0.182179,-6.38627 0.03932,-0.97584 0.04755,-1.95271 0.06455,-2.92919 0.04331,-2.48797 0.06936,-4.97698 0.04977,-7.46528 -0.02127,-0.68749 -0.032,-1.37538 -0.0638,-2.06245 -0.05377,-1.16168 -0.160811,-2.38479 -0.246343,-3.54637 -0.100499,-1.36486 -0.179639,-2.73371 -0.410964,-4.08495 -0.180332,-0.95923 -0.367583,-1.91526 -0.578638,-2.86826 -0.05679,-0.2564 -0.109091,-0.51391 -0.173445,-0.76853 -0.05692,-0.2252 -0.12941,-0.4462 -0.190249,-0.67038 -0.05448,-0.20076 -0.103791,-0.40288 -0.155686,-0.60432 -0.177657,-0.75178 -0.346744,-1.51404 -0.357328,-2.29009 0,0 -0.735637,0.38225 -0.735637,0.38225 z" />
    <path
       style="fill:#000000;fill-opacity:1;fill-rule:nonzero;stroke:none;stroke-width:0.264583"
       id="path688"
       d="m 75.537472,158.47053 c -0.302498,0.72766 -0.413949,1.53446 -0.528558,2.3083 -0.06671,0.45045 -0.151392,0.89974 -0.17975,1.35422 -0.03587,0.57489 -0.0084,1.15199 -0.01257,1.72798 -0.06594,0.65744 -0.131887,1.31489 -0.197832,1.97233 0,0 0.07176,-0.0354 0.07176,-0.0354 v 0 c 0.114247,-0.68113 0.228496,-1.36226 0.342744,-2.0434 0.178572,-0.66087 0.37189,-1.31793 0.53572,-1.98262 0.384342,-1.55932 0.179406,-1.09637 0.558853,-2.4627 0.109675,-0.39492 0.228685,-0.77011 0.428831,-1.12664 0.04068,-0.0725 0.09893,-0.13354 0.148394,-0.20031 0,0 -1.1676,0.4882 -1.1676,0.4882 z" />
    <path
       style="fill:#000000;fill-opacity:1;fill-rule:nonzero;stroke:none;stroke-width:0.264583"
       id="path690"
       d="m 43.008269,154.67019 c 0.193183,3.75788 0.434613,7.50716 0.815065,11.25233 0.868225,7.08264 2.491264,14.04091 3.674123,21.07234 0.328136,1.95058 0.617485,3.90748 0.926227,5.86123 0.985112,7.25937 1.715511,14.56796 2.047597,21.88859 0.132596,2.923 0.148222,5.85012 0.222335,8.77518 0,0 0.0712,-0.0365 0.0712,-0.0365 v 0 c -0.196051,-10.31147 -0.348715,-20.64765 -1.880867,-30.87069 -0.291545,-1.96331 -0.562306,-3.92983 -0.874633,-5.88994 -1.123596,-7.05146 -2.615285,-14.04256 -3.575103,-21.12047 -0.485886,-3.69016 -0.911029,-7.39198 -1.078445,-11.11238 0,0 -0.347498,0.18029 -0.347498,0.18029 z" />
    <path
       style="fill:#000000;fill-opacity:1;fill-rule:nonzero;stroke:none;stroke-width:0.409757"
       id="path692"
       d="m 48.923716,196.72421 c -2.35363,7.55014 -3.281104,15.48935 -4.371952,23.31268 -1.102667,8.97087 -1.636382,17.99967 -2.410177,27.00477 0,0 0.108948,-0.0562 0.108948,-0.0562 v 0 c 0.271284,-3.15676 0.489229,-6.31895 0.813849,-9.47031 0.612487,-5.946 1.511001,-11.85777 2.125191,-17.80367 0.81119,-6.56265 1.443114,-13.26301 2.980591,-19.70324 0.284699,-1.19255 0.676872,-2.28302 1.066298,-3.43351 0,0 -0.312747,0.14958 -0.312747,0.14958 z" />
    <path
       style="fill:#000000;fill-opacity:1;fill-rule:nonzero;stroke:none;stroke-width:0.264583"
       id="path694"
       d="m 45.499343,118.2539 c -0.168958,0.35005 -0.363665,0.75787 -0.538041,1.09365 -0.901798,1.73652 -0.167899,0.2373 -1.186884,2.28396 -0.734539,1.47535 -1.070443,2.20313 -1.804847,3.74897 -2.659264,5.63069 -4.856491,11.47518 -6.766827,17.39941 -0.537977,1.66835 -1.034108,3.34991 -1.551162,5.02486 -1.465636,5.34449 -1.823932,6.31476 -2.957484,11.89874 -0.444185,2.1881 -0.797451,4.39367 -1.196178,6.5905 0,0 0.07192,-0.035 0.07192,-0.035 v 0 c 0.398775,-2.19673 0.752086,-4.40221 1.196325,-6.5902 1.152334,-5.67553 1.472329,-6.48023 2.974268,-11.90592 0.538049,-1.6847 1.054476,-3.37645 1.614144,-5.05408 1.977842,-5.92872 4.251801,-11.76142 6.862095,-17.44054 0.339336,-0.69835 0.669682,-1.40114 1.018011,-2.09505 0.86138,-1.71595 1.804853,-3.39004 2.67176,-5.10317 0,0 -0.407101,0.1839 -0.407101,0.1839 z" />
    <path
       style="fill:none;stroke:#000000;stroke-width:0.264583px;stroke-linecap:butt;stroke-linejoin:miter;stroke-opacity:1"
       d="m 138.19312,292.92851 c 0.24859,-0.0705 0.49174,-0.16425 0.74579,-0.2114 0.21555,-0.04 0.49042,0.0883 0.70771,0.1134 1.04569,0.12097 2.09326,0.28705 3.14049,0.38801 0.25353,0.0243 0.50854,0.0542 0.76301,0.0657 0.1185,0.005 0.46035,0.0796 0.3428,0.0955 -0.27253,0.0368 0.11645,-0.0629 0,0 -0.0995,-0.41784 0.0387,0.0176 0,0 -0.26235,-0.11925 -0.46695,-0.3401 -0.6123,-0.14544"
       id="path817" />
    <path
       style="fill:#000000;stroke:none;stroke-width:0.353553"
       d="m 533.33529,1107.2702 c -3.40295,-0.4587 -6.21495,-1.0372 -6.45235,-0.9841 -2.64311,0.5907 -2.85662,-1.1844 -2.07712,-1.4318 0.58022,-0.1841 2.87262,-0.3581 2.87262,-1.778 0,-2.6844 1.23141,-11.6696 3.55995,-25.9759 6.45602,-39.6651 7.63748,-49.2568 12.15006,-98.64139 1.77159,-19.38785 2.68173,-30.71814 3.72045,-46.31549 1.28486,-19.29362 3.19695,-56.1861 3.19695,-61.68312 v -2.48683 h 7.63433 7.63432 l -0.22286,4.86136 c -2.42381,52.87082 -3.72442,72.63345 -7.63772,116.0539 -4.06454,45.09867 -6.9801,68.29627 -13.08631,104.12147 -1.16004,6.8059 -1.48673,13.1124 -1.59023,13.7444 -0.17417,1.0635 -0.32997,1.4118 -1.54219,1.3818 -0.72039,-0.018 -4.75695,-0.4076 -8.1599,-0.8663 z"
       id="path856"
       transform="scale(0.26458333)" />
    <path
       style="fill:#000000;stroke-width:0.707107"
       d=""
       id="path1236"
       transform="scale(0.26458333)" />
    <path
       style="fill:#000000;stroke-width:0.707107"
       d=""
       id="path1275"
       transform="scale(0.26458333)" />
    <path
       style="fill:#000000;stroke-width:0.353553"
       d=""
       id="path1388"
       transform="scale(0.26458333)" />
    <path
       style="fill:#000000;stroke-width:0.353553"
       d=""
       id="path1427"
       transform="scale(0.26458333)" />
    <path
       style="fill:#000000;stroke-width:0.353553"
       d="m 428.04564,390.93672 c -0.20399,-0.24578 -1.64851,-1.06979 -3.21006,-1.83114 -2.61622,-1.27555 -2.7779,-1.4151 -2.0589,-1.77702 1.96771,-0.0297 4.38677,2.18231 5.90681,3.71235 0,0.46269 -0.19364,0.43106 -0.63785,-0.10419 z"
       id="path1466"
       transform="scale(0.26458333)" />
    <path
       style="fill:#000000;stroke-width:0.353553"
       d="m 373.7433,374.31551 c -2.52454,-0.36767 -8.64981,-1.66635 -12.54226,-1.93108 -4.18461,-0.2846 -5.27466,-2.1234 -3.70679,-2.14809 3.86462,-0.0609 15.91758,0.77169 19.74722,1.85545 9.09351,2.57339 3.16817,0.48203 2.71917,0.50738 -0.449,0.0254 5.96947,2.8927 6.08965,3.08716 0.2719,0.43994 -6.66025,-0.54844 -12.30699,-1.37082 z"
       id="path1579"
       transform="scale(0.26458333)" />
    <path
       style="fill:#000000;stroke-width:0.353553"
       d="m 353.82342,371.33091 c 0.53742,-0.0813 1.33292,-0.0791 1.76776,0.005 0.43485,0.0839 -0.005,0.15041 -0.97713,0.14775 -0.97227,-0.003 -1.32806,-0.0713 -0.79063,-0.15258 z"
       id="path1840"
       transform="scale(0.26458333)" />
    <path
       style="fill:#000000;stroke-width:0.353553"
       d="m 355.43164,371.3431 c 0.25522,-0.10213 0.56016,-0.0896 0.67765,0.0279 0.11748,0.11748 -0.0913,0.20104 -0.46404,0.18569 -0.41187,-0.017 -0.49565,-0.10074 -0.21361,-0.2136 z"
       id="path1879"
       transform="scale(0.26458333)" />
    <use
       id="use2136"
       xlink:href="#path1879"
       x="0"
       y="0"
       width="100%"
       height="100%"
       transform="translate(53.857952,117.43117)" />
    <use
       id="use2160"
       xlink:href="#path1879"
       x="0"
       y="0"
       width="100%"
       height="100%"
       transform="translate(53.241713,120.4181)" />
    <path
       style="fill:#000000;stroke-width:0.176777"
       d=""
       id="path3102"
       transform="scale(0.26458333)" />
  </g>
  <g
     id="layer2">
    <ellipse
       style="fill:#abc837;stroke-width:0.264583"
       id="path11074"
       cx="-135.18999"
       cy="195.37282"
       rx="1.2160764"
       ry="2.0579753"
       transform="rotate(-45.679452)" />
    <ellipse
       style="fill:#abc837;stroke-width:0.264583"
       id="path11076"
       cx="198.0215"
       cy="112.95061"
       rx="1.0289876"
       ry="1.5902536"
       transform="rotate(49.452862)" />
    <ellipse
       style="fill:#cdde87;stroke-width:0.127719"
       id="path11078"
       cx="161.44746"
       cy="187.01964"
       rx="0.52212775"
       ry="1.5109175"
       transform="rotate(31.096071)" />
    <ellipse
       style="fill:#cdde87;stroke-width:0.264583"
       id="path11080"
       cx="-90.654182"
       cy="199.83076"
       rx="0.93544334"
       ry="1.8708867"
       transform="rotate(-36.815855)" />
    <ellipse
       style="fill:#cdde87;stroke-width:0.264583"
       id="path11080-7"
       cx="22.291933"
       cy="251.32478"
       rx="0.93544334"
       ry="1.8708867"
       transform="rotate(-4.6139876)" />
    <ellipse
       style="fill:#abc837;stroke-width:0.264583"
       id="path11082"
       cx="191.96056"
       cy="83.678604"
       rx="0.93544334"
       ry="2.0579753"
       transform="rotate(53.904993)" />
    <ellipse
       style="fill:#abc837;stroke-width:0.264583"
       id="path11084"
       cx="-118.12518"
       cy="182.31908"
       rx="1.0289876"
       ry="1.6837981"
       transform="rotate(-46.704421)" />
    <ellipse
       style="fill:#cdde87;stroke-width:0.264583"
       id="path11086"
       cx="169.56291"
       cy="-100.62332"
       rx="1.0289876"
       ry="1.403165"
       transform="rotate(106.01443)" />
    <ellipse
       style="fill:#cdde87;stroke-width:0.264583"
       id="path11086-3"
       cx="-44.334496"
       cy="-226.29715"
       rx="1.0289876"
       ry="1.403165"
       transform="rotate(178.32294)" />
    <ellipse
       style="fill:#cdde87;stroke-width:0.264583"
       id="path11088"
       cx="67.906715"
       cy="177.19316"
       rx="0.93544334"
       ry="1.5434815"
       transform="rotate(6.8339572)" />
    <ellipse
       style="fill:#abc837;stroke-width:0.264583"
       id="path11088-8"
       cx="176.36632"
       cy="-6.6503501"
       rx="0.93544334"
       ry="1.5434815"
       transform="rotate(67.483126)" />
    <ellipse
       style="fill:#cdde87;stroke-width:0.264583"
       id="path11090"
       cx="-135.45203"
       cy="124.29449"
       rx="0.7951268"
       ry="1.403165"
       transform="rotate(-62.459967)" />
    <ellipse
       style="fill:#cdde87;stroke-width:0.264583"
       id="path11090-9"
       cx="-113.14886"
       cy="146.7769"
       rx="0.7951268"
       ry="1.403165"
       transform="rotate(-62.459967)" />
    <ellipse
       style="fill:#cdde87;stroke-width:0.156839"
       id="path11090-9-2"
       cx="-86.002998"
       cy="175.07486"
       rx="0.50086629"
       ry="0.78272325"
       transform="matrix(0.38784095,-0.92172631,0.83989002,0.54275662,0,0)" />
    <ellipse
       style="fill:#cdde87;stroke-width:0.156839"
       id="path11090-9-2-1"
       cx="163.05759"
       cy="167.00983"
       rx="0.50086629"
       ry="0.78272325"
       transform="matrix(0.9892815,0.14602093,-0.31643842,0.94861305,0,0)" />
    <ellipse
       style="fill:#cdde87;stroke-width:0.264583"
       id="path11092"
       cx="-71.920486"
       cy="166.7831"
       rx="0.74835467"
       ry="1.3563927"
       transform="rotate(-37.129939)" />
    <ellipse
       style="fill:#cdde87;stroke-width:0.264583"
       id="path11094"
       cx="140.78497"
       cy="101.5923"
       rx="0.70158249"
       ry="1.2160764"
       transform="rotate(40.453268)" />
    <ellipse
       style="fill:#cdde87;stroke-width:0.264583"
       id="path11094-1"
       cx="154.67302"
       cy="65.914536"
       rx="0.70158249"
       ry="1.2160764"
       transform="rotate(40.453268)" />
    <ellipse
       style="fill:#cdde87;stroke-width:0.264583"
       id="path11096"
       cx="-87.315247"
       cy="150.26511"
       rx="0.74835467"
       ry="1.2160764"
       transform="rotate(-45.368939)" />
    <ellipse
       style="fill:#cdde87;stroke-width:0.264583"
       id="path11096-3"
       cx="-55.130878"
       cy="163.92159"
       rx="0.74835467"
       ry="1.2160764"
       transform="rotate(-45.368939)" />
    <ellipse
       style="fill:#cdde87;stroke-width:0.264583"
       id="path11098"
       cx="158.39764"
       cy="39.811611"
       rx="0.84189904"
       ry="1.3563927"
       transform="rotate(61.16157)" />
    <ellipse
       style="fill:#cdde87;stroke-width:0.264583"
       id="path11098-7"
       cx="159.39334"
       cy="5.9132571"
       rx="0.84189904"
       ry="1.3563927"
       transform="rotate(61.16157)" />
    <ellipse
       style="fill:#abc837;stroke-width:0.264583"
       id="path11100"
       cx="151.38045"
       cy="65.994629"
       rx="0.60803819"
       ry="1.0289876"
       transform="rotate(56.212822)" />
    <ellipse
       style="fill:#abc837;stroke-width:0.264583"
       id="path11100-7"
       cx="224.08635"
       cy="13.726212"
       rx="0.60803819"
       ry="1.0289876"
       transform="rotate(56.212822)" />
    <ellipse
       style="fill:#cdde87;stroke-width:0.264583"
       id="path11100-2"
       cx="166.40941"
       cy="31.812832"
       rx="0.60803819"
       ry="1.0289876"
       transform="rotate(56.212822)" />
    <ellipse
       style="fill:#cdde87;stroke-width:0.264583"
       id="path11100-2-5"
       cx="179.20197"
       cy="31.087614"
       rx="0.60803819"
       ry="1.0289876"
       transform="rotate(56.212822)" />
    <ellipse
       style="fill:#cdde87;stroke-width:0.22619"
       id="path11104"
       cx="-116.94543"
       cy="128.02171"
       rx="0.59513015"
       ry="0.76565206"
       transform="matrix(0.6288176,-0.77755285,0.8119475,0.58373046,0,0)" />
    <ellipse
       style="fill:#cdde87;stroke-width:0.22619"
       id="path11104-1"
       cx="-92.871353"
       cy="213.34915"
       rx="0.59513015"
       ry="0.76565206"
       transform="matrix(0.6288176,-0.77755285,0.8119475,0.58373046,0,0)" />
    <ellipse
       style="fill:#cdde87;stroke-width:0.22619"
       id="path11104-1-0"
       cx="-81.659523"
       cy="198.31175"
       rx="0.59513015"
       ry="0.76565206"
       transform="matrix(0.6288176,-0.77755285,0.8119475,0.58373046,0,0)" />
    <ellipse
       style="fill:#abc837;stroke-width:0.22619"
       id="path11104-2"
       cx="-84.564606"
       cy="150.17078"
       rx="0.59513015"
       ry="0.76565206"
       transform="matrix(0.6288176,-0.77755285,0.8119475,0.58373046,0,0)" />
    <ellipse
       style="fill:#abc837;stroke-width:0.22619"
       id="path11104-2-1"
       cx="-71.504112"
       cy="149.06229"
       rx="0.59513015"
       ry="0.76565206"
       transform="matrix(0.6288176,-0.77755285,0.8119475,0.58373046,0,0)" />
    <ellipse
       style="fill:#cdde87;stroke-width:0.264583"
       id="path11106"
       cx="-75.48407"
       cy="141.57498"
       rx="0.38587037"
       ry="0.70158249"
       transform="rotate(-39.521302)" />
    <ellipse
       style="fill:#cdde87;stroke-width:0.264583"
       id="path11106-7"
       cx="46.070007"
       cy="184.77478"
       rx="0.38587037"
       ry="0.70158249"
       transform="rotate(-9.7790257)" />
    <ellipse
       style="fill:#cdde87;stroke-width:0.264583"
       id="path11106-7-6"
       cx="38.169483"
       cy="167.84621"
       rx="0.38587037"
       ry="0.70158249"
       transform="rotate(-9.7790257)" />
    <ellipse
       style="fill:#cdde87;stroke-width:0.264583"
       id="path11106-8"
       cx="-27.287975"
       cy="212.48389"
       rx="0.38587037"
       ry="0.70158249"
       transform="rotate(-39.521302)" />
    <ellipse
       style="fill:#cdde87;stroke-width:0.264583"
       id="path11106-8-2"
       cx="-23.444248"
       cy="202.83534"
       rx="0.38587037"
       ry="0.70158249"
       transform="rotate(-39.521302)" />
    <ellipse
       style="fill:#cdde87;stroke-width:0.264583"
       id="path11108"
       cx="-48.469978"
       cy="148.14903"
       rx="0.38587037"
       ry="0.65481037"
       transform="rotate(-29.870455)" />
    <ellipse
       style="fill:#cdde87;stroke-width:0.264583"
       id="path11108-5"
       cx="-10.392616"
       cy="162.5321"
       rx="0.38587037"
       ry="0.65481037"
       transform="rotate(-29.870455)" />
    <ellipse
       style="fill:#abc837;stroke-width:0.264583"
       id="path11110"
       cx="1.6071861"
       cy="150.8965"
       rx="0.37417734"
       ry="0.63142425"
       transform="rotate(-12.549786)" />
    <ellipse
       style="fill:#cdde87;stroke-width:0.264583"
       id="path11112"
       cx="-140.5865"
       cy="43.323605"
       rx="0.33909819"
       ry="0.59634513"
       transform="rotate(-86.438714)" />
    <ellipse
       style="fill:#cdde87;stroke-width:0.264583"
       id="path11112-29"
       cx="-208.41821"
       cy="31.140381"
       rx="0.33909819"
       ry="0.59634513"
       transform="rotate(-113.88377)" />
    <ellipse
       style="fill:#cdde87;stroke-width:0.264583"
       id="path11112-29-6"
       cx="-123.72614"
       cy="-192.97458"
       rx="0.33909819"
       ry="0.59634513"
       transform="rotate(-177.1921)" />
    <ellipse
       style="fill:#cdde87;stroke-width:0.264583"
       id="path11112-2"
       cx="-213.92181"
       cy="43.527546"
       rx="0.33909819"
       ry="0.59634513"
       transform="rotate(-109.78626)" />
    <ellipse
       style="fill:#cdde87;stroke-width:0.264583"
       id="path11112-2-2"
       cx="-201.58466"
       cy="43.116528"
       rx="0.33909819"
       ry="0.59634513"
       transform="rotate(-109.78626)" />
    <ellipse
       style="fill:#cdde87;stroke-width:0.264583"
       id="path11112-0"
       cx="-144.25339"
       cy="78.147095"
       rx="0.33909819"
       ry="0.59634513"
       transform="rotate(-86.438714)" />
    <ellipse
       style="fill:#cdde87;stroke-width:0.264583"
       id="path11114"
       cx="-71.819252"
       cy="124.52682"
       rx="0.37417734"
       ry="0.59634513"
       transform="rotate(-45)" />
    <ellipse
       style="fill:#cdde87;stroke-width:0.264583"
       id="path11114-9"
       cx="-53.624294"
       cy="215.68985"
       rx="0.37417734"
       ry="0.59634513"
       transform="rotate(-45)" />
    <ellipse
       style="fill:#abc837;stroke-width:0.232671"
       id="path11116"
       cx="137.85448"
       cy="-19.379774"
       rx="0.33346826"
       ry="0.47941473"
       transform="rotate(82.227685)" />
  </g>
</svg>
